<?xml version="1.0" encoding="UTF-8" standalone="no"?>
<svg width="40px" height="40px" viewBox="0 0 40 40" version="1.1" xmlns="http://www.w3.org/2000/svg" xmlns:xlink="http://www.w3.org/1999/xlink">
    <!-- Generator: Sketch 42 (36781) - http://www.bohemiancoding.com/sketch -->
    <title>Dribbble</title>
    <desc>Created with Sketch.</desc>
    <defs></defs>
    <g id="Landing-Page" stroke="none" stroke-width="1" fill="none" fill-rule="evenodd">
        <g id="Dribbble">
            <g>
                <path d="M29.5238095,22.1108225 C29.3991342,22.7238095 29.2121212,23.3264069 28.9679654,23.8978355 C28.7290043,24.4640693 28.4329004,25.0095238 28.0900433,25.5186147 C27.752381,26.0225108 27.3575758,26.4952381 26.9264069,26.9264069 C26.4952381,27.3575758 26.0225108,27.7471861 25.5186147,28.0900433 C25.0095238,28.4329004 24.4640693,28.7290043 23.9030303,28.9679654 C23.3264069,29.2121212 22.7238095,29.3991342 22.1108225,29.5238095 C21.4822511,29.6536797 20.8380952,29.7160173 20.1939394,29.7160173 C19.5445887,29.7160173 18.9004329,29.6536797 18.2718615,29.5238095 C17.6640693,29.3991342 17.0614719,29.2121212 16.4848485,28.9679654 C15.9186147,28.7290043 15.3731602,28.4329004 14.8640693,28.0900433 C14.3601732,27.7471861 13.8874459,27.3575758 13.4562771,26.9264069 C13.0251082,26.4952381 12.6354978,26.0225108 12.2926407,25.5186147 C11.9497835,25.0095238 11.6536797,24.4640693 11.4147186,23.8978355 C11.1705628,23.3264069 10.9835498,22.7238095 10.8588745,22.1108225 C10.7290043,21.4822511 10.6666667,20.8380952 10.6666667,20.1887446 C10.6666667,19.5445887 10.7290043,18.9004329 10.8588745,18.2718615 C10.9835498,17.6640693 11.1705628,17.0562771 11.4147186,16.4848485 C11.6536797,15.9186147 11.9497835,15.3731602 12.2926407,14.8640693 C12.6354978,14.3601732 13.0251082,13.8874459 13.4562771,13.4562771 C13.8874459,13.0251082 14.3601732,12.6354978 14.8640693,12.2926407 C15.3731602,11.9497835 15.9186147,11.6536797 16.4848485,11.4147186 C17.0614719,11.1705628 17.6640693,10.9835498 18.2718615,10.8588745 C18.9004329,10.7290043 19.5445887,10.6666667 20.1939394,10.6666667 C20.8380952,10.6666667 21.4822511,10.7290043 22.1108225,10.8588745 C22.7238095,10.9835498 23.3264069,11.1705628 23.9030303,11.4147186 C24.4640693,11.6536797 25.0095238,11.9497835 25.5186147,12.2926407 C26.0225108,12.6354978 26.4952381,13.0251082 26.9264069,13.4562771 C27.3575758,13.8874459 27.752381,14.3601732 28.0900433,14.8640693 C28.4329004,15.3731602 28.7290043,15.9186147 28.9679654,16.4848485 C29.2121212,17.0562771 29.3991342,17.6640693 29.5238095,18.2718615 C29.6536797,18.9004329 29.7160173,19.5445887 29.7160173,20.1887446 C29.7160173,20.8380952 29.6536797,21.4822511 29.5238095,22.1108225 Z M12.1714286,18.4623377 C12.3844156,18.4623377 15.7766234,18.5038961 19.6831169,17.4701299 C18.2753247,14.9662338 16.7688312,12.9246753 16.6649351,12.7792208 C14.3948052,13.8493506 12.7012987,15.9428571 12.1714286,18.4623377 Z M14.0779221,25.5688312 C14.0779221,25.5688312 16.3064935,21.6207792 20.6961039,20.2025974 C20.8051948,20.1662338 20.9090909,20.1350649 21.0181818,20.1038961 C20.8103896,19.6415584 20.5922078,19.1792208 20.3584416,18.7220779 C16.1662338,19.974026 12.1506494,19.8857143 12.0051948,19.8805195 C12,19.9636364 12,20.0519481 12,20.1350649 C12,22.2285714 12.7844156,24.1246753 14.0779221,25.5688312 Z M21.574026,21.4493506 C21.5532468,21.4597403 21.5376623,21.4597403 21.5168831,21.4701299 C16.6909091,23.1480519 15.1324675,26.5506494 15.1324675,26.5506494 C16.5142857,27.6311688 18.2493506,28.2753247 20.1350649,28.2753247 C21.2623377,28.2753247 22.3324675,28.0415584 23.3090909,27.625974 C23.1896104,26.9142857 22.7168831,24.425974 21.574026,21.4493506 Z M21.2571429,16.9766234 C24.3272727,15.8285714 25.4857143,14.0623377 25.5064935,14.0311688 C24.0727273,12.7688312 22.1922078,12 20.1350649,12 C19.4753247,12 18.8311688,12.0831169 18.2181818,12.2337662 C18.3376623,12.3948052 19.8649351,14.4207792 21.2571429,16.9766234 Z M28.1662338,21.4285714 C28,21.3766234 25.7246753,20.6545455 23.0961039,21.0753247 C24.161039,24.0051948 24.5974026,26.3948052 24.6805195,26.8831169 C26.5038961,25.6519481 27.8025974,23.6987013 28.1662338,21.4285714 Z M26.4155844,14.9714286 C26.4,14.9922078 25.0961039,16.8779221 21.8857143,18.1922078 C22.0727273,18.5766234 22.2545455,18.9714286 22.425974,19.3714286 C22.4831169,19.5116883 22.5402597,19.6519481 22.6025974,19.787013 C25.3974026,19.438961 28.1506494,20.0311688 28.2649351,20.0571429 C28.2493506,18.1246753 27.5584416,16.3584416 26.4155844,14.9714286 Z" id="Combined-Shape" fill="#363636"></path>
                <rect id="Base" x="0" y="0" width="40" height="40"></rect>
            </g>
        </g>
    </g>
</svg>