<?xml version="1.0" encoding="UTF-8" standalone="no"?>
<svg width="40px" height="40px" viewBox="0 0 40 40" version="1.1" xmlns="http://www.w3.org/2000/svg" xmlns:xlink="http://www.w3.org/1999/xlink">
    <!-- Generator: Sketch 42 (36781) - http://www.bohemiancoding.com/sketch -->
    <title>Facebook</title>
    <desc>Created with Sketch.</desc>
    <defs></defs>
    <g id="Landing-Page" stroke="none" stroke-width="1" fill="none" fill-rule="evenodd">
        <g id="Facebook">
            <g>
                <rect id="Base" x="0" y="0" width="40" height="40"></rect>
                <path d="M29.3679654,28.6869264 C29.3679654,29.2687446 29.0822511,29.8874459 28.5056277,29.8874459 L23.6536797,29.8874459 L23.6536797,22.6147186 L26.1212121,22.6147186 L26.4952381,19.4978355 L23.6536797,19.4978355 L23.6536797,17.6375758 C23.6536797,16.8064069 23.8770563,16.3809524 25.0718615,16.3809524 L26.7705628,16.3809524 L26.7705628,13.6635498 C26.2510823,13.6271861 25.4458874,13.5492641 24.391342,13.5492641 C22.1991342,13.5492641 20.5367965,14.8895238 20.5367965,17.3518615 L20.5367965,19.4978355 L17.9393939,19.4978355 L17.9393939,22.6147186 L20.5367965,22.6147186 L20.5367965,29.8874459 L11.5393939,29.8874459 C10.9575758,29.8874459 10.6666667,29.2687446 10.6666667,28.6869264 L10.6666667,11.7206926 C10.6666667,11.1388745 10.9575758,10.6666667 11.5393939,10.6666667 L28.5056277,10.6666667 C29.0822511,10.6666667 29.3679654,11.1388745 29.3679654,11.7206926 L29.3679654,28.6869264 L29.3679654,28.6869264 Z" fill="#363636"></path>
            </g>
        </g>
    </g>
</svg>