<?xml version="1.0" encoding="UTF-8" standalone="no"?>
<svg width="96px" height="60px" viewBox="0 0 96 60" version="1.1" xmlns="http://www.w3.org/2000/svg" xmlns:xlink="http://www.w3.org/1999/xlink">
    <!-- Generator: Sketch 42 (36781) - http://www.bohemiancoding.com/sketch -->
    <title>Leap Logo</title>
    <desc>Created with Sketch.</desc>
    <defs></defs>
    <g id="Landing-Page" stroke="none" stroke-width="1" fill="none" fill-rule="evenodd">
        <g id="Leap-Logo" fill="#363636">
            <g id="Logo" transform="translate(22.000000, 16.000000)">
                <path d="M4.23068597,20.1428571 C4.38657119,20.1428571 4.51294114,20.0151411 4.51294114,19.8601309 L4.51294114,0.425583431 C4.51294114,0.269438014 4.38235915,0.142857143 4.23068597,0.142857143 L0.870490459,0.142857143 C0.714605236,0.142857143 0.588235294,0.270573207 0.588235294,0.425583431 L0.588235294,19.8601309 C0.588235294,20.0162763 0.718817281,20.1428571 0.870490459,20.1428571 L4.23068597,20.1428571 Z M11.4020661,12.146108 L16.5397422,12.146108 C16.4881072,11.195811 15.8168531,10.0454515 13.9579954,10.0454515 C12.3056775,10.0454515 11.4795185,11.2208188 11.4020661,12.146108 Z M16.8146853,15.2990319 L20.0903203,16.1993133 C19.4713026,18.3499854 17.4337029,20.150548 14.1838604,20.150548 C10.6503014,20.150548 7.50362845,17.6997822 7.50362845,13.5234771 C7.50362845,9.52222668 10.5729242,6.97142955 13.900144,6.97142955 C17.8721737,6.97142955 20.3224519,9.34717197 20.3224519,13.3484224 C20.3224519,13.8735865 20.2708671,14.4487662 20.2450747,14.5237897 L11.3209038,14.5237897 C11.398281,15.9242273 12.7136935,16.9245399 14.2354452,16.9245399 C15.6540272,16.9245399 16.4535917,16.2743367 16.8146853,15.2990319 Z M22.5515239,16.3779295 C22.3979707,14.587128 24.2296594,12.9268511 26.3466917,12.6267573 L29.3673354,12.1766166 C30.0644071,12.0765853 30.2967643,11.7514837 30.2967643,11.3263509 C30.2967643,10.6011243 29.6513276,9.97592889 28.4120891,9.97592889 C27.0437633,9.97592889 26.2950568,10.8762102 26.2176044,11.8014994 L22.8096986,11.1262884 C22.9646034,9.35073351 24.6685563,6.99999891 28.4379066,6.99999891 C32.5945189,6.99999891 34.1177495,9.25070225 34.1177495,11.8014994 L34.1177495,17.8783984 C34.1177495,18.8537032 34.2471246,20.0178181 34.272942,20.1428571 L30.7435303,20.1428571 C30.7177128,20.0428259 30.6065739,19.2538282 30.6065739,18.4035625 C29.9353197,19.4538908 28.6960813,20.1541096 26.9921284,20.1541096 C24.1780244,20.1541096 22.7050771,18.1687311 22.5515239,16.3779295 Z M27.9473747,17.4477648 C29.1091608,17.4477648 30.2967643,16.8975928 30.2967643,14.9719911 L30.2967643,14.4218192 L27.8699223,14.7969364 C27.0437633,14.9219755 26.4241441,15.2970927 26.4241441,16.1723662 C26.4241441,16.8225694 26.8630411,17.4477648 27.9473747,17.4477648 Z M41.8066087,24.3471043 C41.8066087,24.4996536 41.6760769,24.6233192 41.524462,24.6233192 L38.1655583,24.6233192 C38.009733,24.6233192 37.8834116,24.494908 37.8834116,24.3394559 L37.8834116,7.72681374 C37.8834116,7.57004033 38.0096496,7.44295038 38.1562771,7.44295038 L41.4046906,7.44295038 C41.5553901,7.44295038 41.6775562,7.56065073 41.6775562,7.72600266 L41.6775562,8.71834894 C42.2195768,7.91809886 43.6133442,7.1428566 45.4458902,7.1428566 C49.1626032,7.1428566 51.4081174,9.89371624 51.4081174,13.6198807 C51.4081174,17.4210685 48.8786877,20.1469204 45.2910272,20.1469204 C43.6391547,20.1469204 42.4002504,19.5967484 41.8066087,18.8965296 L41.8066087,24.3471043 Z M47.564962,13.6215691 C47.564962,11.5459204 46.1966362,10.5456078 44.6475881,10.5456078 C43.1243576,10.5456078 41.7560318,11.5459204 41.7560318,13.6215691 C41.7560318,15.6722099 43.1243576,16.7225381 44.6475881,16.7225381 C46.1966362,16.7225381 47.564962,15.6972177 47.564962,13.6215691 Z" id="leap"></path>
            </g>
        </g>
    </g>
</svg>