<?xml version="1.0" encoding="UTF-8" standalone="no"?>
<svg width="40px" height="40px" viewBox="0 0 40 40" version="1.1" xmlns="http://www.w3.org/2000/svg" xmlns:xlink="http://www.w3.org/1999/xlink">
    <!-- Generator: Sketch 42 (36781) - http://www.bohemiancoding.com/sketch -->
    <title>Twitter</title>
    <desc>Created with Sketch.</desc>
    <defs></defs>
    <g id="Landing-Page" stroke="none" stroke-width="1" fill="none" fill-rule="evenodd">
        <g id="Twitter">
            <g>
                <rect id="Base" x="0" y="0" width="40" height="40"></rect>
                <path d="M28.1316017,16.0363636 C28.1367965,16.212987 28.1419913,16.3896104 28.1419913,16.5662338 C28.1419913,21.974026 24.1264069,28.212987 16.7861472,28.212987 C14.5316017,28.212987 12.4329004,27.5324675 10.6666667,26.374026 C10.978355,26.4103896 11.2952381,26.4311688 11.617316,26.4311688 C13.4874459,26.4311688 15.2121212,25.7766234 16.578355,24.6805195 C14.8277056,24.6441558 13.3575758,23.4649351 12.8484848,21.838961 C13.0926407,21.8857143 13.3419913,21.9116883 13.5965368,21.9116883 C13.965368,21.9116883 14.3601732,21.8597403 14.6926407,21.7662338 C12.8640693,21.3922078 11.5290043,19.7350649 11.5290043,17.7506494 L11.5290043,17.7038961 C12.0484848,18.0051948 12.6458874,18.1922078 13.3004329,18.212987 C12.2251082,17.4805195 11.5030303,16.2233766 11.5030303,14.8051948 C11.5030303,14.0571429 11.6900433,13.3506494 12.0329004,12.7480519 C14.0017316,15.225974 16.9367965,16.8519481 20.2562771,17.0233766 C20.1835498,16.7220779 20.1497835,16.4103896 20.1497835,16.0935065 C20.1497835,13.8337662 21.9352381,12 24.138355,12 C25.2864069,12 26.324329,12.4935065 27.0516017,13.2883117 C27.9606926,13.1064935 28.8126407,12.7688312 29.5866667,12.2961039 C29.2905628,13.2519481 28.6562771,14.0571429 27.830303,14.561039 C28.6406926,14.4623377 29.4095238,14.2441558 30.1212121,13.9168831 C29.591342,14.7376623 28.9108225,15.4597403 28.1316017,16.0363636 L28.1316017,16.0363636 Z" fill="#363636"></path>
            </g>
        </g>
    </g>
</svg>